<svg xmlns="http://www.w3.org/2000/svg" width="46.157" height="46.093" viewBox="0 0 46.157 46.093">
  <g id="Group_1113" data-name="Group 1113" transform="translate(25.112 46.292) rotate(-140)">
    <path id="Path_2393" data-name="Path 2393" d="M.5,16.5A16,16,0,0,0,13.053,32.118V.882A16,16,0,0,0,.5,16.5" fill="#b3b3b3"/>
    <path id="Path_2394" data-name="Path 2394" d="M.5,16.5A16,16,0,0,0,13.053,32.118V.882A16,16,0,0,0,.5,16.5Z" fill="none" stroke="#505052" stroke-miterlimit="10" stroke-width="1"/>
    <path id="Path_2395" data-name="Path 2395" d="M32.5,16.5A16,16,0,0,0,19.947.882V32.118A16,16,0,0,0,32.5,16.5" fill="#b3b3b3"/>
    <path id="Path_2396" data-name="Path 2396" d="M32.5,16.5A16,16,0,0,0,19.947.882V32.118A16,16,0,0,0,32.5,16.5Z" fill="none" stroke="#505052" stroke-miterlimit="10" stroke-width="1"/>
    <path id="Path_2397" data-name="Path 2397" d="M16.5.5a16.04,16.04,0,0,0-3.447.382V32.118a15.743,15.743,0,0,0,6.894,0V.882A16.04,16.04,0,0,0,16.5.5" fill="#808081"/>
    <path id="Path_2398" data-name="Path 2398" d="M16.5.5a16.04,16.04,0,0,0-3.447.382V32.118a15.743,15.743,0,0,0,6.894,0V.882A16.04,16.04,0,0,0,16.5.5Z" fill="none" stroke="#505052" stroke-miterlimit="10" stroke-width="1"/>
  </g>
</svg>
