<svg xmlns="http://www.w3.org/2000/svg" width="44.628" height="44.819" viewBox="0 0 44.628 44.819"><g transform="translate(28.354 -0.13) rotate(60)"><path d="M.5,16.5A16,16,0,0,0,13.053,32.118V.882A16,16,0,0,0,.5,16.5" fill="#b3b3b3"/><path d="M.5,16.5A16,16,0,0,0,13.053,32.118V.882A16,16,0,0,0,.5,16.5Z" fill="none" stroke="#505052" stroke-miterlimit="10" stroke-width="1"/><path d="M32.5,16.5A16,16,0,0,0,19.947.882V32.118A16,16,0,0,0,32.5,16.5" fill="#b3b3b3"/><path d="M32.5,16.5A16,16,0,0,0,19.947.882V32.118A16,16,0,0,0,32.5,16.5Z" fill="none" stroke="#505052" stroke-miterlimit="10" stroke-width="1"/><path d="M16.5.5a16.04,16.04,0,0,0-3.447.382V32.118a15.743,15.743,0,0,0,6.894,0V.882A16.04,16.04,0,0,0,16.5.5" fill="#808081"/><path d="M16.5.5a16.04,16.04,0,0,0-3.447.382V32.118a15.743,15.743,0,0,0,6.894,0V.882A16.04,16.04,0,0,0,16.5.5Z" fill="none" stroke="#505052" stroke-miterlimit="10" stroke-width="1"/></g></svg>